<svg width="24" height="24" viewBox="0 0 24 24" fill="none" xmlns="http://www.w3.org/2000/svg">
<path d="M14.9188 6H13.3765C12.1143 6 11.0874 7.02694 11.0874 8.28918V10.0241H9.6506C9.29125 10.0241 9 10.3154 9 10.6747C9 11.0341 9.29125 11.3253 9.6506 11.3253H11.0874V17.3494C11.0874 17.7087 11.3786 18 11.738 18C12.0973 18 12.3886 17.7087 12.3886 17.3494V11.3253H14.6115C14.9708 11.3253 15.2621 11.0341 15.2621 10.6747C15.2621 10.3154 14.9708 10.0241 14.6115 10.0241H12.3886V8.28918C12.3886 7.74441 12.8318 7.3012 13.3765 7.3012H14.9187C15.278 7.3012 15.5693 7.00995 15.5693 6.6506C15.5693 6.29125 15.278 6 14.9188 6Z" fill="white"/>
<path d="M12 23.5C18.3513 23.5 23.5 18.3513 23.5 12C23.5 5.64873 18.3513 0.5 12 0.5C5.64873 0.5 0.5 5.64873 0.5 12C0.5 18.3513 5.64873 23.5 12 23.5Z" stroke="white"/>
</svg>
