<svg width="24" height="24" viewBox="0 0 24 24" fill="none" xmlns="http://www.w3.org/2000/svg">
<path d="M12 14.6663C13.4727 14.6663 14.6666 13.4724 14.6666 11.9997C14.6666 10.5269 13.4727 9.33301 12 9.33301C10.5272 9.33301 9.33331 10.5269 9.33331 11.9997C9.33331 13.4724 10.5272 14.6663 12 14.6663Z" stroke="white" stroke-linecap="round" stroke-linejoin="round"/>
<path d="M6 14.6667V9.33333C6 7.49239 7.49239 6 9.33333 6H14.6667C16.5076 6 18 7.49239 18 9.33333V14.6667C18 16.5076 16.5076 18 14.6667 18H9.33333C7.49239 18 6 16.5076 6 14.6667Z" stroke="white"/>
<path d="M15.6667 8.34008L15.6731 8.33301" stroke="white" stroke-width="1.5" stroke-linecap="round" stroke-linejoin="round"/>
<path d="M12 23.5C18.3513 23.5 23.5 18.3513 23.5 12C23.5 5.64873 18.3513 0.5 12 0.5C5.64873 0.5 0.5 5.64873 0.5 12C0.5 18.3513 5.64873 23.5 12 23.5Z" stroke="white"/>
</svg>
