<svg width="117" height="36" viewBox="0 0 117 36" fill="none" xmlns="http://www.w3.org/2000/svg">
<path d="M45.71 35.9L44.84 31.7C46.26 31.52 47.5 31.3 48.56 31.04C49.62 30.8 50.51 30.46 51.23 30.02C51.95 29.58 52.49 28.98 52.85 28.22C53.21 27.44 53.39 26.44 53.39 25.22C53.39 24.04 53.21 23.1 52.85 22.4C52.49 21.7 52.01 21.35 51.41 21.35C50.99 21.35 50.64 21.5 50.36 21.8C50.08 22.08 49.87 22.42 49.73 22.82C49.61 23.2 49.55 23.54 49.55 23.84C49.55 24.02 49.6 24.21 49.7 24.41C49.8 24.61 50.02 24.78 50.36 24.92C50.7 25.06 51.23 25.14 51.95 25.16C52.69 25.18 53.69 25.11 54.95 24.95H59.99C60.75 24.95 61.29 25.15 61.61 25.55C61.95 25.93 62.12 26.41 62.12 26.99C62.12 27.61 61.91 28.13 61.49 28.55C61.07 28.95 60.47 29.15 59.69 29.15H51.44C50.18 29.15 49.1 29 48.2 28.7C47.3 28.4 46.61 27.92 46.13 27.26C45.65 26.58 45.41 25.68 45.41 24.56C45.41 23.66 45.56 22.76 45.86 21.86C46.18 20.96 46.62 20.14 47.18 19.4C47.74 18.64 48.39 18.04 49.13 17.6C49.89 17.14 50.71 16.91 51.59 16.91C52.79 16.91 53.84 17.28 54.74 18.02C55.64 18.76 56.34 19.74 56.84 20.96C57.36 22.18 57.62 23.51 57.62 24.95C57.62 27.21 57.14 29.13 56.18 30.71C55.22 32.29 53.85 33.51 52.07 34.37C50.29 35.25 48.17 35.76 45.71 35.9ZM59.9724 11.45L58.5024 8.99C59.4824 8.41 60.4924 7.83 61.5324 7.25C62.5724 6.65 63.7324 6.01 65.0124 5.33C66.3124 4.63 67.8324 3.84 69.5724 2.96L70.9524 5.6C69.1724 6.46 67.6324 7.23 66.3324 7.91C65.0524 8.59 63.9024 9.22 62.8824 9.8C61.8824 10.36 60.9124 10.91 59.9724 11.45ZM59.7324 29.15L60.0324 24.95H64.2324C64.9324 24.95 65.4624 24.91 65.8224 24.83C66.2024 24.75 66.4624 24.63 66.6024 24.47C66.7424 24.29 66.8124 24.08 66.8124 23.84C66.8124 23.48 66.6524 23.06 66.3324 22.58C66.0324 22.1 65.6324 21.6 65.1324 21.08C64.6524 20.56 64.1424 20.04 63.6024 19.52C63.0624 18.98 62.5424 18.48 62.0424 18.02C61.5624 17.56 61.1624 17.16 60.8424 16.82C60.5424 16.46 60.3924 16.2 60.3924 16.04C60.3924 15.48 60.4224 15.04 60.4824 14.72C60.5424 14.38 60.6224 14.11 60.7224 13.91C60.8424 13.71 60.9724 13.54 61.1124 13.4C61.4524 13.06 61.9624 12.68 62.6424 12.26C63.3224 11.82 64.1224 11.36 65.0424 10.88C65.9824 10.38 67.0324 9.86 68.1924 9.32C69.3524 8.76 70.5824 8.18 71.8824 7.58L73.5924 11.24C72.2724 11.82 71.0924 12.36 70.0524 12.86C69.0324 13.34 68.1124 13.79 67.2924 14.21C66.4924 14.61 65.7724 14.99 65.1324 15.35C64.5124 15.71 63.9524 16.05 63.4524 16.37L63.7524 14.15C64.6124 14.89 65.3924 15.59 66.0924 16.25C66.7924 16.91 67.4424 17.57 68.0424 18.23C68.6424 18.89 69.2024 19.57 69.7224 20.27C70.2624 20.97 70.7824 21.73 71.2824 22.55C71.7224 23.25 72.1724 23.77 72.6324 24.11C73.1124 24.45 73.5724 24.68 74.0124 24.8C74.4724 24.9 74.8824 24.95 75.2424 24.95C76.0024 24.95 76.5424 25.15 76.8624 25.55C77.2024 25.93 77.3724 26.41 77.3724 26.99C77.3724 27.61 77.1624 28.13 76.7424 28.55C76.3224 28.95 75.7224 29.15 74.9424 29.15C74.2824 29.15 73.5724 29.04 72.8124 28.82C72.0524 28.58 71.3424 28.2 70.6824 27.68C70.0224 27.16 69.5224 26.45 69.1824 25.55L70.8024 25.67C70.5024 26.31 70.1424 26.86 69.7224 27.32C69.3224 27.76 68.8424 28.12 68.2824 28.4C67.7224 28.66 67.0824 28.85 66.3624 28.97C65.6424 29.09 64.8324 29.15 63.9324 29.15H59.7324ZM74.9668 29.15L75.2668 24.95C75.9868 24.95 76.6068 24.88 77.1268 24.74C77.6468 24.6 78.0868 24.32 78.4468 23.9C78.8068 23.46 79.1068 22.82 79.3468 21.98C79.6068 21.14 79.8368 20.02 80.0368 18.62L83.9668 19.28C83.9268 19.58 83.8668 19.93 83.7868 20.33C83.7268 20.73 83.6668 21.14 83.6068 21.56C83.5668 21.96 83.5468 22.34 83.5468 22.7C83.5468 23.06 83.6168 23.38 83.7568 23.66C83.8968 23.94 84.1168 24.18 84.4168 24.38C84.7368 24.56 85.1468 24.7 85.6468 24.8C86.1668 24.9 86.7968 24.95 87.5368 24.95C88.2968 24.95 88.8368 25.15 89.1568 25.55C89.4768 25.93 89.6368 26.41 89.6368 26.99C89.6368 27.61 89.4268 28.13 89.0068 28.55C88.6068 28.95 88.0168 29.15 87.2368 29.15C86.3368 29.15 85.5168 29.08 84.7768 28.94C84.0568 28.8 83.4268 28.57 82.8868 28.25C82.3668 27.91 81.9368 27.47 81.5968 26.93C81.2768 26.37 81.0768 25.69 80.9968 24.89H82.4368C82.0768 25.85 81.6168 26.62 81.0568 27.2C80.5168 27.76 79.9068 28.18 79.2268 28.46C78.5468 28.74 77.8368 28.92 77.0968 29C76.3768 29.1 75.6668 29.15 74.9668 29.15ZM84.5968 15.92C84.0168 15.92 83.5168 15.72 83.0968 15.32C82.6968 14.9 82.4968 14.41 82.4968 13.85C82.4968 13.27 82.6968 12.77 83.0968 12.35C83.5168 11.93 84.0168 11.72 84.5968 11.72C85.1568 11.72 85.6368 11.93 86.0368 12.35C86.4368 12.77 86.6368 13.27 86.6368 13.85C86.6368 14.41 86.4368 14.9 86.0368 15.32C85.6368 15.72 85.1568 15.92 84.5968 15.92ZM79.4068 15.89C78.8268 15.89 78.3268 15.69 77.9068 15.29C77.5068 14.87 77.3068 14.38 77.3068 13.82C77.3068 13.24 77.5068 12.74 77.9068 12.32C78.3268 11.9 78.8268 11.69 79.4068 11.69C79.9668 11.69 80.4468 11.9 80.8468 12.32C81.2468 12.74 81.4468 13.24 81.4468 13.82C81.4468 14.38 81.2468 14.87 80.8468 15.29C80.4468 15.69 79.9668 15.89 79.4068 15.89ZM87.2422 29.15L87.5422 24.98C88.3222 25 89.0422 24.99 89.7022 24.95C90.3622 24.91 90.9522 24.85 91.4722 24.77C92.0122 24.69 92.4822 24.6 92.8822 24.5C93.3022 24.4 93.6522 24.31 93.9322 24.23C94.6122 24.01 95.1922 23.75 95.6722 23.45C96.1522 23.13 96.5222 22.77 96.7822 22.37C97.0422 21.97 97.1722 21.54 97.1722 21.08C97.1722 20.72 97.0922 20.36 96.9322 20C96.7922 19.62 96.5822 19.31 96.3022 19.07C96.0222 18.83 95.6922 18.71 95.3122 18.71C94.9522 18.71 94.6222 18.82 94.3222 19.04C94.0222 19.26 93.7822 19.56 93.6022 19.94C93.4222 20.3 93.3322 20.72 93.3322 21.2C93.3322 21.62 93.4322 22.02 93.6322 22.4C93.8322 22.76 94.1122 23.11 94.4722 23.45C94.8322 23.79 95.2622 24.11 95.7622 24.41L91.7722 25.94C91.3322 25.52 90.9122 25.07 90.5122 24.59C90.1322 24.11 89.8122 23.57 89.5522 22.97C89.3122 22.35 89.1922 21.66 89.1922 20.9C89.1922 19.98 89.3722 19.14 89.7322 18.38C90.0922 17.62 90.5722 16.97 91.1722 16.43C91.7722 15.87 92.4422 15.44 93.1822 15.14C93.9222 14.84 94.6622 14.69 95.4022 14.69C96.6022 14.69 97.6422 14.97 98.5222 15.53C99.4022 16.09 100.082 16.82 100.562 17.72C101.062 18.62 101.312 19.6 101.312 20.66C101.312 21.64 101.132 22.52 100.772 23.3C100.412 24.06 99.9222 24.74 99.3022 25.34C98.7022 25.92 98.0322 26.43 97.2922 26.87C96.5722 27.31 95.8422 27.68 95.1022 27.98C94.7422 28.14 94.2922 28.29 93.7522 28.43C93.2122 28.57 92.6022 28.7 91.9222 28.82C91.2422 28.92 90.5122 29 89.7322 29.06C88.9522 29.12 88.1222 29.15 87.2422 29.15ZM103.082 29.15C101.922 29.15 100.782 29.09 99.6622 28.97C98.5422 28.85 97.5022 28.67 96.5422 28.43C95.6022 28.19 94.7822 27.9 94.0822 27.56L96.1522 24.32C96.7522 24.48 97.4522 24.61 98.2522 24.71C99.0722 24.79 99.9222 24.85 100.802 24.89C101.702 24.93 102.562 24.95 103.382 24.95C104.142 24.95 104.682 25.15 105.002 25.55C105.342 25.93 105.512 26.41 105.512 26.99C105.512 27.61 105.302 28.13 104.882 28.55C104.462 28.95 103.862 29.15 103.082 29.15ZM95.4322 11.9C94.8122 11.9 94.2822 11.69 93.8422 11.27C93.4222 10.85 93.2122 10.33 93.2122 9.71C93.2122 9.09 93.4222 8.56 93.8422 8.12C94.2822 7.68 94.8122 7.46 95.4322 7.46C96.0322 7.46 96.5422 7.68 96.9622 8.12C97.4022 8.56 97.6222 9.09 97.6222 9.71C97.6222 10.33 97.4022 10.85 96.9622 11.27C96.5422 11.69 96.0322 11.9 95.4322 11.9ZM103.211 11.45L101.741 8.99C102.721 8.41 103.731 7.83 104.771 7.25C105.811 6.65 106.971 6.01 108.251 5.33C109.551 4.63 111.071 3.84 112.811 2.96L114.191 5.6C112.411 6.46 110.871 7.23 109.571 7.91C108.291 8.59 107.141 9.22 106.121 9.8C105.121 10.36 104.151 10.91 103.211 11.45ZM103.121 29.15L103.421 24.95H107.711C108.131 24.95 108.501 24.93 108.821 24.89C109.141 24.83 109.401 24.74 109.601 24.62C109.821 24.5 109.981 24.35 110.081 24.17C110.181 23.99 110.231 23.78 110.231 23.54C110.231 23.3 110.101 22.92 109.841 22.4C109.601 21.86 109.071 21.21 108.251 20.45C107.811 20.05 107.331 19.63 106.811 19.19C106.311 18.73 105.831 18.3 105.371 17.9C104.911 17.48 104.531 17.11 104.231 16.79C103.931 16.47 103.781 16.24 103.781 16.1C103.781 15.8 103.801 15.47 103.841 15.11C103.881 14.75 103.941 14.42 104.021 14.12C104.121 13.82 104.251 13.6 104.411 13.46C104.751 13.14 105.251 12.77 105.911 12.35C106.591 11.91 107.401 11.44 108.341 10.94C109.281 10.42 110.331 9.88 111.491 9.32C112.671 8.74 113.931 8.16 115.271 7.58L116.981 11.24C115.881 11.72 114.841 12.19 113.861 12.65C112.881 13.09 111.961 13.53 111.101 13.97C110.261 14.39 109.481 14.81 108.761 15.23C108.061 15.63 107.441 16.03 106.901 16.43L107.291 14.21C108.991 15.51 110.341 16.68 111.341 17.72C112.361 18.76 113.121 19.69 113.621 20.51C114.121 21.31 114.451 22.03 114.611 22.67C114.771 23.29 114.851 23.84 114.851 24.32C114.851 24.8 114.731 25.32 114.491 25.88C114.271 26.42 113.861 26.94 113.261 27.44C112.681 27.94 111.861 28.35 110.801 28.67C109.741 28.99 108.381 29.15 106.721 29.15H103.121Z" fill="white"/>
<path d="M21.391 4.00001C15.481 3.99601 9.316 5.32801 3.09 7.05501C2.3 7.21501 1.527 7.73101 1.121 8.37101C0.745998 8.97301 0.608999 9.57801 0.491999 10.215C-0.113001 13.602 -0.0390014 16.93 0.0859986 20.613C0.112999 21.457 0.241998 22.461 0.632998 23.067C1.047 23.68 1.75 24.07 2.593 24.199C3.676 24.363 4.753 24.489 5.832 24.602L5.594 31.258C5.554 31.785 5.816 32.227 6.137 32.481C6.426 32.699 6.747 32.797 7.074 32.821C7.73 32.871 8.504 32.586 8.887 31.86C10.567 28.625 11.621 27.2 13.719 25.05C19.199 25.188 23.98 24.883 29.391 24.48C31.305 24.434 32.621 22.867 32.969 21.617C34.004 18.379 34.168 14.383 34.277 10.34C34.324 8.73801 33.769 7.16801 32.785 6.33601C31.848 5.57801 30.719 5.30501 29.68 5.02401C26.797 4.37101 23.915 4.02001 21.391 4.00001ZM29.266 6.53101C30.305 6.81301 31.223 7.08601 31.796 7.55501C32.762 8.57801 32.73 9.26201 32.719 10.367C32.609 14.285 32.422 18.09 31.535 20.973C31.152 22.047 30.492 22.813 29.235 22.926C23.719 23.336 18.934 23.653 13.391 23.492C13.2835 23.4888 13.1764 23.5075 13.0763 23.5471C12.9763 23.5866 12.8853 23.6462 12.809 23.722C10.48 26.074 9.289 27.712 7.512 31.129C7.472 31.207 7.382 31.254 7.27 31.262C7.2 31.258 7.168 31.199 7.164 31.149L7.402 23.929C7.40283 23.7341 7.3328 23.5455 7.20495 23.3983C7.07711 23.2511 6.90014 23.1554 6.707 23.129C5.41266 23.0044 4.12186 22.8454 2.836 22.652C2.281 22.57 2.078 22.418 1.926 22.192C1.66 21.559 1.664 21.168 1.645 20.562C1.519 16.906 1.461 13.715 2.019 10.539C2.074 10.067 2.25 9.58601 2.437 9.18801C2.747 8.70301 3.219 8.63301 3.695 8.50001C9.781 6.82001 15.735 5.56301 21.344 5.55901C24.094 5.65601 26.977 5.93401 29.266 6.53101ZM8.242 12.723C7.402 13.727 7.484 15.09 8.132 16.004C8.472 16.484 9 16.867 9.641 16.954C10.477 17.024 11.008 16.684 11.578 16.297C12.613 15.399 12.718 13.828 11.93 12.692C11.7394 12.4142 11.4872 12.1842 11.1929 12.0201C10.8987 11.856 10.5705 11.7622 10.234 11.746C9.336 11.754 8.727 12.153 8.242 12.723ZM17.312 11.903C16.477 11.93 15.801 12.508 15.387 13.133C14.917 13.843 14.641 14.738 15.023 15.617C15.758 17.301 18.297 17.281 19.309 15.567C19.773 14.777 19.656 13.879 19.309 13.231C18.961 12.578 18.437 12.047 17.676 11.926C17.5557 11.9069 17.4338 11.8992 17.312 11.903ZM24.676 12.059C24.414 12.0523 24.1522 12.0813 23.898 12.145C22.894 12.415 22.039 13.449 22.168 14.774C22.234 15.442 22.539 16.094 23.094 16.539C23.648 16.989 24.449 17.188 25.297 17.016C26.269 16.816 26.875 16.031 27.074 15.274C27.277 14.516 27.227 13.746 26.758 13.121C26.515 12.7969 26.201 12.5327 25.8401 12.3486C25.4793 12.1645 25.0811 12.0655 24.676 12.059ZM10.167 13.301C10.351 13.305 10.499 13.363 10.651 13.582C10.991 14.074 10.897 14.817 10.554 15.117C10.214 15.414 9.999 15.442 9.847 15.422C9.698 15.399 9.546 15.297 9.409 15.106C9.151 14.738 9.073 14.145 9.417 13.719C9.597 13.477 9.933 13.324 10.167 13.301ZM17.421 13.473C17.448 13.477 17.776 13.668 17.933 13.961C18.089 14.254 18.116 14.524 17.968 14.774C17.526 15.524 16.588 15.32 16.448 14.996C16.393 14.871 16.433 14.371 16.69 13.985C16.948 13.594 17.268 13.449 17.42 13.473H17.421ZM25.503 14.043C25.55 14.11 25.667 14.535 25.577 14.871C25.487 15.211 25.339 15.418 24.979 15.492C24.519 15.59 24.261 15.492 24.065 15.336C23.874 15.18 23.741 14.914 23.714 14.629C23.644 13.926 23.897 13.762 24.3 13.656C24.765 13.539 25.292 13.742 25.503 14.043Z" fill="white"/>
</svg>
