<svg width="24" height="24" viewBox="0 0 24 24" fill="none" xmlns="http://www.w3.org/2000/svg">
<path d="M19.3522 7.40068C19.2473 7.32968 19.1088 7.33328 19.0079 7.40993C18.9057 7.48729 18.7399 7.55382 18.5514 7.60838C19.0675 7.00588 19.0782 6.6031 19.0721 6.50828C19.0652 6.40077 19.0002 6.30554 18.9028 6.25963C18.805 6.21403 18.6904 6.22484 18.6034 6.28806C17.9841 6.73802 17.3676 6.83602 16.997 6.84697C16.4218 6.29988 15.676 6 14.883 6C13.1782 6 11.7912 7.40532 11.7912 9.13261C11.7912 9.27245 11.8005 9.41201 11.8186 9.55041C8.90833 9.50088 6.54621 6.71508 6.52183 6.68577C6.46006 6.61175 6.36626 6.57147 6.26927 6.58072C6.17316 6.58909 6.087 6.64394 6.03881 6.72749C5.2184 8.15086 5.71958 9.4068 6.2228 10.1592C6.17084 10.1284 6.12827 10.0999 6.09914 10.0784C6.01024 10.0123 5.89161 10.0014 5.79219 10.0503C5.6926 10.0994 5.62896 10.1998 5.62709 10.3108C5.60486 11.6757 6.24269 12.4743 6.86241 12.9269C6.79532 12.9361 6.73239 12.9681 6.68518 13.0195C6.61418 13.0966 6.58921 13.2055 6.61981 13.3058C7.04958 14.7126 8.0918 15.2109 8.78003 15.3872C7.38784 16.4377 5.37006 16.0948 5.34769 16.0906C5.2139 16.0671 5.08 16.1376 5.02501 16.2626C4.97017 16.3875 5.0077 16.5338 5.11623 16.6165C6.60018 17.7491 8.37496 18 9.65684 18C10.6262 18 11.3136 17.8564 11.3797 17.8421C17.8462 16.3097 18.0511 10.4013 18.0378 9.39447C19.2509 8.26507 19.4417 7.83158 19.4714 7.72375C19.5049 7.60173 19.457 7.47185 19.3522 7.40068Z" fill="white"/>
<path d="M12 23.5C18.3513 23.5 23.5 18.3513 23.5 12C23.5 5.64873 18.3513 0.5 12 0.5C5.64873 0.5 0.5 5.64873 0.5 12C0.5 18.3513 5.64873 23.5 12 23.5Z" stroke="white"/>
</svg>
